# xmcd CD database file
#
# Track frame offsets:
#	150
#	16416
#	26321
#	34647
#	40520
#	58878
#	64155
#	72952
#	98361
#	106486
#	118892
#	131367
#	134705
#	151560
#	156679
#	159649
#	168315
#	174350
#	185530
#	196454
#	208427
#	222074
#
# Disc length: 3051 seconds
#
# Revision: 0
# Processed by: cddbd v1.5.2PL0 Copyright (c) Steve Scherf et al.
# Submitted via: CDex 1.70beta2
#
DISCID=360be916
DTITLE=Phi Yaan-Zek with Marco Minnemann - Dance With The Anima
DYEAR=2010
DGENRE=Jazz
TTITLE0=Adventures In Myth 
TTITLE1=Midnight Tryst
TTITLE2=Ecstasies Of The Starlight Self 
TTITLE3=Lallejee's Animatronics
TTITLE4=Inamorata In Peril - Part One
TTITLE5=Dirt Under The Fingernails
TTITLE6=Twisted To The 7th Degree Off Starboard
TTITLE7=Four Daughters Of Phrygia 
TTITLE8=Inner Constellations Of Feeling 
TTITLE9=Melodies Of Me 
TTITLE10=Mariana's Guide To The Deep
TTITLE11=Signposts 
TTITLE12=Dance With The Anima 
TTITLE13=The Tactile Ones 
TTITLE14=Synchro-Gnostic Mirrorball Gyrations 
TTITLE15=Melodies Of Me Too 
TTITLE16=Jade Fluid 
TTITLE17=Maid With Spanish Fly 
TTITLE18=Precipices 
TTITLE19=Inamorata In Peril - Part Two 
TTITLE20=Flirting With Intensity 
TTITLE21=A Healing Of Shattered Hearts 
EXTD=YEAR: 2010
EXTT0=
EXTT1=
EXTT2=
EXTT3=
EXTT4=
EXTT5=
EXTT6=
EXTT7=
EXTT8=
EXTT9=
EXTT10=
EXTT11=
EXTT12=
EXTT13=
EXTT14=
EXTT15=
EXTT16=
EXTT17=
EXTT18=
EXTT19=
EXTT20=
EXTT21=
PLAYORDER=
